<?xml version="1.0" standalone="no"?>
<!DOCTYPE svg PUBLIC "-//W3C//DTD SVG 20010904//EN"
 "http://www.w3.org/TR/2001/REC-SVG-20010904/DTD/svg10.dtd">
<svg version="1.0" xmlns="http://www.w3.org/2000/svg"
 width="150.000000pt" height="150.000000pt" viewBox="0 0 150.000000 150.000000"
 preserveAspectRatio="xMidYMid meet">

<g transform="translate(0.000000,150.000000) scale(0.100000,-0.100000)"
fill="#000000" stroke="none">
<path d="M144 1356 c-18 -14 -19 -32 -19 -606 0 -574 1 -592 19 -606 27 -19
70 -18 89 4 15 17 17 73 17 598 0 508 -2 582 -16 602 -18 26 -60 29 -90 8z"/>
<path d="M516 1348 c-14 -20 -16 -94 -16 -604 0 -550 1 -582 18 -597 23 -21
62 -22 88 -3 18 14 19 32 19 606 0 574 -1 592 -19 606 -30 21 -72 18 -90 -8z"/>
<path d="M884 1335 c-12 -29 -14 -126 -14 -578 0 -300 3 -559 6 -577 11 -52
45 -60 249 -60 216 0 240 7 250 72 3 24 5 241 3 484 -2 338 -6 445 -16 456 -7
9 -99 66 -206 127 -220 126 -247 134 -272 76z"/>
</g>
</svg>
